<svg id="Trust-Logo-Horizontal_white" xmlns="http://www.w3.org/2000/svg" xmlns:xlink="http://www.w3.org/1999/xlink" width="227.8" height="39.087" viewBox="0 0 227.8 39.087">
  <defs>
    <clipPath id="clip-path">
      <path id="Trazado_43990" data-name="Trazado 43990" d="M35.779,43.968h-7.7a.267.267,0,0,1-.274-.274V30.561a.35.35,0,0,0-.352-.352H20.574a.267.267,0,0,1-.274-.274V23.174a.267.267,0,0,1,.274-.274H43.244a.267.267,0,0,1,.274.274v6.8a.267.267,0,0,1-.274.274H36.326a.267.267,0,0,0-.274.274V43.694A.267.267,0,0,1,35.779,43.968Z" transform="translate(-20.3 -22.9)" fill="#6d4545"/>
    </clipPath>
    <clipPath id="clip-path-2">
      <rect id="Rect치ngulo_2063" data-name="Rect치ngulo 2063" width="345.96" height="281.505" fill="#6d4545"/>
    </clipPath>
  </defs>
  <path id="Trazado_43988" data-name="Trazado 43988" d="M40.4,36.288A3.92,3.92,0,0,1,36.488,40.2H9.909A3.92,3.92,0,0,1,6,36.288V9.709A3.92,3.92,0,0,1,9.909,5.8H36.488A3.92,3.92,0,0,1,40.4,9.709Z" transform="translate(-3.655 -3.533)" fill="#fff"/>
  <path id="Trazado_43989" data-name="Trazado 43989" d="M32.833,0H6.254A6.272,6.272,0,0,0,0,6.254V32.833a6.272,6.272,0,0,0,6.254,6.254H32.833a6.272,6.272,0,0,0,6.254-6.254V6.254A6.272,6.272,0,0,0,32.833,0Zm3.909,32.833a3.92,3.92,0,0,1-3.909,3.909H6.254a3.92,3.92,0,0,1-3.909-3.909V6.254A3.92,3.92,0,0,1,6.254,2.345H32.833a3.92,3.92,0,0,1,3.909,3.909Z" fill="#6d4545"/>
  <g id="Grupo_1677" data-name="Grupo 1677" transform="translate(7.935 8.951)">
    <g id="Grupo_1671" data-name="Grupo 1671">
      <path id="SVGID_1_" d="M35.779,43.968h-7.7a.267.267,0,0,1-.274-.274V30.561a.35.35,0,0,0-.352-.352H20.574a.267.267,0,0,1-.274-.274V23.174a.267.267,0,0,1,.274-.274H43.244a.267.267,0,0,1,.274.274v6.8a.267.267,0,0,1-.274.274H36.326a.267.267,0,0,0-.274.274V43.694A.267.267,0,0,1,35.779,43.968Z" transform="translate(-20.3 -22.9)" fill="#6d4545" fill-rule="evenodd"/>
    </g>
    <g id="Grupo_1676" data-name="Grupo 1676">
      <g id="Grupo_1675" data-name="Grupo 1675" clip-path="url(#clip-path)">
        <g id="Grupo_1672" data-name="Grupo 1672" transform="translate(-174.915 -135.671)">
          <rect id="SVGID_3_" width="345.96" height="281.505" fill="#6d4545"/>
        </g>
        <g id="Grupo_1674" data-name="Grupo 1674" transform="translate(-174.915 -135.671)">
          <g id="Grupo_1673" data-name="Grupo 1673" transform="translate(0 0)" clip-path="url(#clip-path-2)">
            <rect id="Rect치ngulo_2062" data-name="Rect치ngulo 2062" width="23.921" height="21.811" transform="translate(174.563 135.281)" fill="#6d4545"/>
          </g>
        </g>
      </g>
    </g>
  </g>
  <g id="Grupo_1680" data-name="Grupo 1680" transform="translate(50.149 10.593)">
    <path id="Trazado_43991" data-name="Trazado 43991" d="M141.629,31.253h-4.964V44.66h-3.479V31.253H128.3V28.4h13.329Z" transform="translate(-128.3 -27.892)" fill="#6d4545"/>
    <path id="Trazado_43992" data-name="Trazado 43992" d="M176.2,33.481a5.134,5.134,0,0,1,1.055,3.6V44.66h-3.361V37.077a1.973,1.973,0,0,0-.469-1.524,1.9,1.9,0,0,0-1.407-.43,2.086,2.086,0,0,0-1.954.977v8.6H166.7V28.4h3.361v5.472a3.929,3.929,0,0,1,1.407-1.134,4.347,4.347,0,0,1,4.73.743Z" transform="translate(-151.691 -27.892)" fill="#6d4545"/>
    <path id="Trazado_43993" data-name="Trazado 43993" d="M208.54,45.948h-7.661a2.88,2.88,0,0,0,.938,1.8,2.851,2.851,0,0,0,1.915.664,4.182,4.182,0,0,0,1.6-.313,3.4,3.4,0,0,0,1.251-.977l1.6,1.876a4.616,4.616,0,0,1-1.876,1.524,6.021,6.021,0,0,1-2.853.625,6.38,6.38,0,0,1-3.205-.782,5.476,5.476,0,0,1-2.111-2.111,6.312,6.312,0,0,1-.743-2.971v-.43a7.886,7.886,0,0,1,.664-3.244,5.411,5.411,0,0,1,1.954-2.228,5.539,5.539,0,0,1,3.049-.782,5.451,5.451,0,0,1,2.931.743,4.531,4.531,0,0,1,1.837,2.072,7.208,7.208,0,0,1,.625,3.127v1.407Zm-3.283-2.541a2.236,2.236,0,0,0-.547-1.563,1.978,1.978,0,0,0-1.563-.586,1.815,1.815,0,0,0-1.485.625,3.623,3.623,0,0,0-.7,1.759h4.3Z" transform="translate(-170.391 -34.105)" fill="#6d4545"/>
    <g id="Grupo_1678" data-name="Grupo 1678" transform="translate(43.426 0.508)">
      <path id="Trazado_43994" data-name="Trazado 43994" d="M252.729,31.253h-4.964V44.66h-3.479V31.253H239.4V28.4h13.329Z" transform="translate(-239.4 -28.4)" fill="#6d4545"/>
      <path id="Trazado_43995" data-name="Trazado 43995" d="M283.688,38.539c.2.039.352.039.469.078l-.039,3.244a6.52,6.52,0,0,0-1.212-.078A2.257,2.257,0,0,0,280.562,43v7.817H277.2V38.735h3.166l.117,1.446a3.221,3.221,0,0,1,1.134-1.251,3.026,3.026,0,0,1,1.563-.43C283.3,38.5,283.493,38.539,283.688,38.539Z" transform="translate(-262.425 -34.552)" fill="#6d4545"/>
      <path id="Trazado_43996" data-name="Trazado 43996" d="M309.953,39.1V51.178h-3.166l-.078-1.251a3.822,3.822,0,0,1-1.407,1.094,4.135,4.135,0,0,1-1.876.391,3.983,3.983,0,0,1-2.971-1.094,4.79,4.79,0,0,1-1.055-3.4V39.1h3.361v7.857a1.937,1.937,0,0,0,.43,1.329,1.761,1.761,0,0,0,1.212.43,2.221,2.221,0,0,0,2.15-1.094V39.1Z" transform="translate(-275.948 -34.918)" fill="#6d4545"/>
      <path id="Trazado_43997" data-name="Trazado 43997" d="M330.952,42.352a3.147,3.147,0,0,1,.586-1.876,3.945,3.945,0,0,1,1.681-1.368,5.963,5.963,0,0,1,2.58-.508,6.39,6.39,0,0,1,2.7.508,4.026,4.026,0,0,1,1.8,1.368,3.3,3.3,0,0,1,.625,2.033h-3.362a1.564,1.564,0,0,0-.43-1.134,1.865,1.865,0,0,0-1.329-.391,1.751,1.751,0,0,0-1.173.352,1.057,1.057,0,0,0-.43.9.983.983,0,0,0,.508.86,4.635,4.635,0,0,0,1.681.547,13.98,13.98,0,0,1,2.423.7,4.026,4.026,0,0,1,1.563,1.173,3.023,3.023,0,0,1,.586,1.915,3.123,3.123,0,0,1-.625,1.915,4.255,4.255,0,0,1-1.8,1.329,7.221,7.221,0,0,1-2.7.469,6.233,6.233,0,0,1-2.814-.586,4.363,4.363,0,0,1-1.8-1.524,3.406,3.406,0,0,1-.625-1.954h3.166a1.591,1.591,0,0,0,.625,1.29,2.606,2.606,0,0,0,1.524.43,2.469,2.469,0,0,0,1.329-.313,1.046,1.046,0,0,0,.469-.9.96.96,0,0,0-.2-.586,2.434,2.434,0,0,0-.743-.469,10.32,10.32,0,0,0-1.485-.43C332.359,45.44,330.952,44.189,330.952,42.352Z" transform="translate(-294.953 -34.613)" fill="#6d4545"/>
      <path id="Trazado_43998" data-name="Trazado 43998" d="M367.37,43.808v2.541a6.274,6.274,0,0,1-1.993.313c-2.384,0-3.557-1.212-3.557-3.635V36.772H360.1V34.31h1.72V31.3h3.361v3.01h2.033v2.462h-2.033V42.6a1.271,1.271,0,0,0,.274.977,1.488,1.488,0,0,0,.938.274A2.62,2.62,0,0,0,367.37,43.808Z" transform="translate(-312.922 -30.166)" fill="#6d4545"/>
    </g>
    <g id="Grupo_1679" data-name="Grupo 1679" transform="translate(105.613)">
      <path id="Trazado_43999" data-name="Trazado 43999" d="M408.194,29.1a5.136,5.136,0,0,1,2.15,1.915,5.224,5.224,0,0,1,.743,2.814,4.7,4.7,0,0,1-2.892,4.534,7.814,7.814,0,0,1-3.283.625h-2.892V44.66H398.5V28.4h6.41A7.253,7.253,0,0,1,408.194,29.1Zm-1.29,6.449a2.267,2.267,0,0,0,.664-1.681,2.831,2.831,0,0,0-.274-1.29,2.208,2.208,0,0,0-.86-.938,2.881,2.881,0,0,0-1.485-.352h-2.892v4.925h2.892A3.069,3.069,0,0,0,406.9,35.553Z" transform="translate(-398.5 -27.892)" fill="#6d4545"/>
      <path id="Trazado_44000" data-name="Trazado 44000" d="M440.988,38.539c.2.039.352.039.469.078l-.039,3.244a6.519,6.519,0,0,0-1.212-.078A2.257,2.257,0,0,0,437.861,43v7.817H434.5V38.735h3.166l.117,1.446a3.221,3.221,0,0,1,1.134-1.251,3.026,3.026,0,0,1,1.563-.43A2.6,2.6,0,0,1,440.988,38.539Z" transform="translate(-420.429 -34.044)" fill="#6d4545"/>
      <path id="Trazado_44001" data-name="Trazado 44001" d="M454.964,41.471a5.073,5.073,0,0,1,1.954-2.189,5.586,5.586,0,0,1,3.088-.782,6.184,6.184,0,0,1,3.127.782,5.394,5.394,0,0,1,1.993,2.189,6.966,6.966,0,0,1,.665,3.166v.235a7.517,7.517,0,0,1-.665,3.166,5.3,5.3,0,0,1-1.954,2.189,5.586,5.586,0,0,1-3.088.782,6.185,6.185,0,0,1-3.127-.782,5.394,5.394,0,0,1-1.993-2.189,6.966,6.966,0,0,1-.664-3.166v-.235A7.518,7.518,0,0,1,454.964,41.471Zm3.283,5.9a1.982,1.982,0,0,0,1.837.938,1.959,1.959,0,0,0,1.8-.938,4.646,4.646,0,0,0,.586-2.5v-.235a4.74,4.74,0,0,0-.586-2.5,1.982,1.982,0,0,0-1.837-.938,1.959,1.959,0,0,0-1.8.938,4.739,4.739,0,0,0-.586,2.5v.235A4.554,4.554,0,0,0,458.248,47.373Z" transform="translate(-432.489 -34.044)" fill="#6d4545"/>
      <path id="Trazado_44002" data-name="Trazado 44002" d="M488.1,43.634a4.388,4.388,0,0,1-1.133,3.205,4.258,4.258,0,0,1-3.127,1.134,7,7,0,0,1-1.642-.2V45.119a4.775,4.775,0,0,0,1.016.117c1.016,0,1.485-.508,1.485-1.563V31.79h3.4Zm-.43-16.065a1.794,1.794,0,0,1,0,2.5,1.938,1.938,0,0,1-1.368.469,2.005,2.005,0,0,1-1.368-.469,1.794,1.794,0,0,1,0-2.5A2.005,2.005,0,0,1,486.3,27.1,1.874,1.874,0,0,1,487.672,27.569Z" transform="translate(-449.484 -27.1)" fill="#6d4545"/>
      <path id="Trazado_44003" data-name="Trazado 44003" d="M512.84,45.848h-7.661a2.88,2.88,0,0,0,.938,1.8,2.85,2.85,0,0,0,1.915.664,4.182,4.182,0,0,0,1.6-.313,3.4,3.4,0,0,0,1.251-.977l1.6,1.876a4.616,4.616,0,0,1-1.876,1.524,6.021,6.021,0,0,1-2.853.625,6.38,6.38,0,0,1-3.205-.782,5.476,5.476,0,0,1-2.111-2.111,6.312,6.312,0,0,1-.743-2.971v-.43a7.887,7.887,0,0,1,.664-3.244,5.411,5.411,0,0,1,1.954-2.228,5.539,5.539,0,0,1,3.049-.782,5.45,5.45,0,0,1,2.931.743,4.53,4.53,0,0,1,1.837,2.072,7.209,7.209,0,0,1,.625,3.127v1.407Zm-3.323-2.5a2.236,2.236,0,0,0-.547-1.563,1.978,1.978,0,0,0-1.563-.586,1.815,1.815,0,0,0-1.485.625,3.622,3.622,0,0,0-.7,1.759h4.3Z" transform="translate(-461.362 -34.044)" fill="#6d4545"/>
      <path id="Trazado_44004" data-name="Trazado 44004" d="M544.493,46.652a4.2,4.2,0,0,1-.664,2.306,4.769,4.769,0,0,1-1.8,1.6,5.524,5.524,0,0,1-2.541.586,5.936,5.936,0,0,1-3.088-.782,4.652,4.652,0,0,1-1.876-2.189,7.388,7.388,0,0,1-.625-3.166v-.274a7.51,7.51,0,0,1,.625-3.166,5.129,5.129,0,0,1,1.876-2.189,5.451,5.451,0,0,1,3.049-.782,5.622,5.622,0,0,1,2.619.586,4.309,4.309,0,0,1,1.8,1.642,4.808,4.808,0,0,1,.625,2.541h-3.166a2.351,2.351,0,0,0-.508-1.485,1.828,1.828,0,0,0-1.446-.586,1.7,1.7,0,0,0-1.681.938,5.6,5.6,0,0,0-.469,2.5v.274a5.483,5.483,0,0,0,.469,2.5,1.76,1.76,0,0,0,1.72.9,2.04,2.04,0,0,0,1.407-.469,1.651,1.651,0,0,0,.547-1.29Z" transform="translate(-480.976 -34.105)" fill="#6d4545"/>
      <path id="Trazado_44005" data-name="Trazado 44005" d="M571.47,43.808v2.541a6.273,6.273,0,0,1-1.993.313c-2.384,0-3.557-1.212-3.557-3.635V36.772H564.2V34.31h1.72V31.3h3.362v3.01h2.032v2.462h-2.032V42.6a1.271,1.271,0,0,0,.274.977,1.488,1.488,0,0,0,.938.274A3.836,3.836,0,0,0,571.47,43.808Z" transform="translate(-499.433 -29.658)" fill="#6d4545"/>
    </g>
  </g>
</svg>
